<svg width="1254" height="215" viewBox="0 0 1254 215" fill="none" xmlns="http://www.w3.org/2000/svg">
<path d="M336.9 115.98C328.5 115.98 321.127 114.347 314.78 111.08C308.527 107.72 303.673 103.147 300.22 97.36C296.767 91.5733 295.04 84.9467 295.04 77.48C295.04 70.0133 296.72 63.3867 300.08 57.6C303.44 51.8133 308.06 47.2867 313.94 44.02C319.913 40.7533 326.68 39.12 334.24 39.12C341.52 39.12 348.053 40.7067 353.84 43.88C359.627 46.96 364.2 51.44 367.56 57.32C370.92 63.1067 372.6 69.9667 372.6 77.9C372.6 78.6467 372.553 79.5333 372.46 80.56C372.46 81.5867 372.413 82.52 372.32 83.36H310.44V71.32H362.1L354.54 74.96C354.633 70.8533 353.793 67.26 352.02 64.18C350.34 61.0067 347.96 58.5333 344.88 56.76C341.8 54.9867 338.253 54.1 334.24 54.1C330.227 54.1 326.68 54.9867 323.6 56.76C320.52 58.5333 318.093 61.0067 316.32 64.18C314.64 67.3533 313.8 71.0867 313.8 75.38V78.32C313.8 82.7067 314.78 86.5333 316.74 89.8C318.7 93.0667 321.453 95.6333 325 97.5C328.547 99.2733 332.7 100.16 337.46 100.16C341.567 100.16 345.207 99.5533 348.38 98.34C351.647 97.0333 354.587 95.0267 357.2 92.32L367.56 103.8C364.107 107.813 359.813 110.847 354.68 112.9C349.547 114.953 343.62 115.98 336.9 115.98ZM428.737 39.12C434.803 39.12 440.17 40.2867 444.837 42.62C449.503 44.9533 453.19 48.5467 455.897 53.4C458.697 58.2533 460.097 64.46 460.097 72.02V115H440.777V74.68C440.777 68.3333 439.283 63.62 436.297 60.54C433.403 57.3667 429.297 55.78 423.977 55.78C420.15 55.78 416.743 56.5733 413.757 58.16C410.77 59.7467 408.437 62.1267 406.757 65.3C405.17 68.4733 404.377 72.5333 404.377 77.48V115H385.057V39.96H403.397V60.54L400.037 54.24C402.743 49.2933 406.57 45.56 411.517 43.04C416.557 40.4267 422.297 39.12 428.737 39.12ZM513.923 115.98C505.523 115.98 498.15 114.347 491.803 111.08C485.55 107.72 480.697 103.147 477.243 97.36C473.79 91.5733 472.063 84.9467 472.063 77.48C472.063 70.0133 473.743 63.3867 477.103 57.6C480.463 51.8133 485.083 47.2867 490.963 44.02C496.937 40.7533 503.703 39.12 511.263 39.12C518.543 39.12 525.077 40.7067 530.863 43.88C536.65 46.96 541.223 51.44 544.583 57.32C547.943 63.1067 549.623 69.9667 549.623 77.9C549.623 78.6467 549.577 79.5333 549.483 80.56C549.483 81.5867 549.437 82.52 549.343 83.36H487.463V71.32H539.123L531.563 74.96C531.657 70.8533 530.817 67.26 529.043 64.18C527.363 61.0067 524.983 58.5333 521.903 56.76C518.823 54.9867 515.277 54.1 511.263 54.1C507.25 54.1 503.703 54.9867 500.623 56.76C497.543 58.5333 495.117 61.0067 493.343 64.18C491.663 67.3533 490.823 71.0867 490.823 75.38V78.32C490.823 82.7067 491.803 86.5333 493.763 89.8C495.723 93.0667 498.477 95.6333 502.023 97.5C505.57 99.2733 509.723 100.16 514.483 100.16C518.59 100.16 522.23 99.5533 525.403 98.34C528.67 97.0333 531.61 95.0267 534.223 92.32L544.583 103.8C541.13 107.813 536.837 110.847 531.703 112.9C526.57 114.953 520.643 115.98 513.923 115.98ZM562.08 115V39.96H580.42V60.82L578.18 54.8C580.327 49.6667 583.827 45.7933 588.68 43.18C593.627 40.4733 599.647 39.12 606.74 39.12V57.04C605.9 56.9467 605.107 56.9 604.36 56.9C603.707 56.8067 603.053 56.76 602.4 56.76C595.96 56.76 590.827 58.6267 587 62.36C583.267 66 581.4 71.5533 581.4 79.02V115H562.08ZM651.262 143.14C644.262 143.14 637.496 142.253 630.962 140.48C624.429 138.707 618.969 136.093 614.582 132.64L622.842 118.5C626.109 121.207 630.216 123.353 635.162 124.94C640.109 126.527 645.102 127.32 650.142 127.32C658.169 127.32 664.002 125.5 667.642 121.86C671.376 118.22 673.242 112.76 673.242 105.48V92.88L674.642 75.24L674.082 57.46V39.96H692.422V103.1C692.422 116.82 688.876 126.9 681.782 133.34C674.782 139.873 664.609 143.14 651.262 143.14ZM648.602 111.5C641.602 111.5 635.209 110.007 629.422 107.02C623.729 103.94 619.202 99.6933 615.842 94.28C612.576 88.8667 610.942 82.52 610.942 75.24C610.942 67.96 612.576 61.6133 615.842 56.2C619.202 50.7867 623.729 46.5867 629.422 43.6C635.209 40.6133 641.602 39.12 648.602 39.12C654.949 39.12 660.596 40.38 665.542 42.9C670.582 45.42 674.549 49.3867 677.442 54.8C680.336 60.12 681.782 66.9333 681.782 75.24C681.782 83.5467 680.336 90.4067 677.442 95.82C674.549 101.14 670.582 105.107 665.542 107.72C660.596 110.24 654.949 111.5 648.602 111.5ZM651.962 95.4C656.162 95.4 659.896 94.56 663.162 92.88C666.429 91.2 668.949 88.8667 670.722 85.88C672.589 82.8 673.522 79.2533 673.522 75.24C673.522 71.2267 672.589 67.7267 670.722 64.74C668.949 61.66 666.429 59.28 663.162 57.6C659.896 55.92 656.162 55.08 651.962 55.08C647.762 55.08 644.029 55.92 640.762 57.6C637.496 59.28 634.929 61.66 633.062 64.74C631.196 67.7267 630.262 71.2267 630.262 75.24C630.262 79.2533 631.196 82.8 633.062 85.88C634.929 88.8667 637.496 91.2 640.762 92.88C644.029 94.56 647.762 95.4 651.962 95.4ZM710.803 115V39.96H730.123V115H710.803ZM720.463 28.48C716.916 28.48 713.976 27.4067 711.643 25.26C709.403 23.02 708.283 20.36 708.283 17.28C708.283 14.1067 709.403 11.4467 711.643 9.29999C713.976 7.15333 716.916 6.07999 720.463 6.07999C724.009 6.07999 726.903 7.10666 729.143 9.15999C731.476 11.12 732.643 13.6867 732.643 16.86C732.643 20.1267 731.523 22.88 729.283 25.12C727.043 27.36 724.103 28.48 720.463 28.48ZM784.435 115.98C776.035 115.98 768.662 114.347 762.315 111.08C756.062 107.72 751.208 103.147 747.755 97.36C744.302 91.5733 742.575 84.9467 742.575 77.48C742.575 70.0133 744.255 63.3867 747.615 57.6C750.975 51.8133 755.595 47.2867 761.475 44.02C767.448 40.7533 774.215 39.12 781.775 39.12C789.055 39.12 795.588 40.7067 801.375 43.88C807.162 46.96 811.735 51.44 815.095 57.32C818.455 63.1067 820.135 69.9667 820.135 77.9C820.135 78.6467 820.088 79.5333 819.995 80.56C819.995 81.5867 819.948 82.52 819.855 83.36H757.975V71.32H809.635L802.075 74.96C802.168 70.8533 801.328 67.26 799.555 64.18C797.875 61.0067 795.495 58.5333 792.415 56.76C789.335 54.9867 785.788 54.1 781.775 54.1C777.762 54.1 774.215 54.9867 771.135 56.76C768.055 58.5333 765.628 61.0067 763.855 64.18C762.175 67.3533 761.335 71.0867 761.335 75.38V78.32C761.335 82.7067 762.315 86.5333 764.275 89.8C766.235 93.0667 768.988 95.6333 772.535 97.5C776.082 99.2733 780.235 100.16 784.995 100.16C789.102 100.16 792.742 99.5533 795.915 98.34C799.182 97.0333 802.122 95.0267 804.735 92.32L815.095 103.8C811.642 107.813 807.348 110.847 802.215 112.9C797.082 114.953 791.155 115.98 784.435 115.98ZM864.372 115.98C857.279 115.98 850.839 114.393 845.052 111.22C839.359 108.047 834.879 103.613 831.612 97.92C828.345 92.1333 826.712 85.32 826.712 77.48C826.712 69.7333 828.345 63.0133 831.612 57.32C834.879 51.5333 839.359 47.0533 845.052 43.88C850.839 40.7067 857.279 39.12 864.372 39.12C870.905 39.12 876.599 40.52 881.452 43.32C886.305 46.0267 890.085 50.2267 892.792 55.92C895.499 61.52 896.852 68.7067 896.852 77.48C896.852 86.2533 895.405 93.4867 892.512 99.18C889.712 104.78 885.885 108.98 881.032 111.78C876.179 114.58 870.625 115.98 864.372 115.98ZM867.032 99.88C871.045 99.88 874.639 98.9933 877.812 97.22C880.985 95.4467 883.505 92.88 885.372 89.52C887.239 86.0667 888.172 82.0533 888.172 77.48C888.172 72.9067 887.239 68.94 885.372 65.58C883.505 62.22 880.985 59.6533 877.812 57.88C874.639 56.0133 871.045 55.08 867.032 55.08C863.112 55.08 859.565 56.0133 856.392 57.88C853.219 59.6533 850.699 62.22 848.832 65.58C846.965 68.94 846.032 72.9067 846.032 77.48C846.032 82.0533 846.965 86.0667 848.832 89.52C850.699 92.88 853.219 95.4467 856.392 97.22C859.565 98.9933 863.112 99.88 867.032 99.88ZM887.752 142.16V98.48L889.152 77.62L888.732 56.76V39.96H907.072V142.16H887.752ZM957.259 115.98C950.912 115.98 945.265 114.813 940.319 112.48C935.465 110.053 931.685 106.367 928.979 101.42C926.272 96.4733 924.919 90.22 924.919 82.66V39.96H944.099V80C944.099 86.5333 945.545 91.3867 948.439 94.56C951.425 97.64 955.532 99.18 960.759 99.18C964.585 99.18 967.945 98.3867 970.839 96.8C973.732 95.2133 975.972 92.8333 977.559 89.66C979.239 86.3933 980.079 82.38 980.079 77.62V39.96H999.259V115H980.919V94.56L984.279 100.72C981.759 105.667 978.072 109.447 973.219 112.06C968.365 114.673 963.045 115.98 957.259 115.98ZM1053.53 115.98C1045.13 115.98 1037.75 114.347 1031.41 111.08C1025.15 107.72 1020.3 103.147 1016.85 97.36C1013.39 91.5733 1011.67 84.9467 1011.67 77.48C1011.67 70.0133 1013.35 63.3867 1016.71 57.6C1020.07 51.8133 1024.69 47.2867 1030.57 44.02C1036.54 40.7533 1043.31 39.12 1050.87 39.12C1058.15 39.12 1064.68 40.7067 1070.47 43.88C1076.25 46.96 1080.83 51.44 1084.19 57.32C1087.55 63.1067 1089.23 69.9667 1089.23 77.9C1089.23 78.6467 1089.18 79.5333 1089.09 80.56C1089.09 81.5867 1089.04 82.52 1088.94 83.36H1027.07V71.32H1078.73L1071.17 74.96C1071.26 70.8533 1070.42 67.26 1068.65 64.18C1066.97 61.0067 1064.59 58.5333 1061.51 56.76C1058.43 54.9867 1054.88 54.1 1050.87 54.1C1046.85 54.1 1043.31 54.9867 1040.23 56.76C1037.15 58.5333 1034.72 61.0067 1032.95 64.18C1031.27 67.3533 1030.43 71.0867 1030.43 75.38V78.32C1030.43 82.7067 1031.41 86.5333 1033.37 89.8C1035.33 93.0667 1038.08 95.6333 1041.62 97.5C1045.17 99.2733 1049.33 100.16 1054.09 100.16C1058.19 100.16 1061.83 99.5533 1065.01 98.34C1068.27 97.0333 1071.21 95.0267 1073.83 92.32L1084.19 103.8C1080.73 107.813 1076.44 110.847 1071.31 112.9C1066.17 114.953 1060.25 115.98 1053.53 115.98ZM1101.68 115V11.12H1121V115H1101.68ZM1139.33 115V11.12H1158.65V115H1139.33ZM1212.97 115.98C1204.57 115.98 1197.19 114.347 1190.85 111.08C1184.59 107.72 1179.74 103.147 1176.29 97.36C1172.83 91.5733 1171.11 84.9467 1171.11 77.48C1171.11 70.0133 1172.79 63.3867 1176.15 57.6C1179.51 51.8133 1184.13 47.2867 1190.01 44.02C1195.98 40.7533 1202.75 39.12 1210.31 39.12C1217.59 39.12 1224.12 40.7067 1229.91 43.88C1235.69 46.96 1240.27 51.44 1243.63 57.32C1246.99 63.1067 1248.67 69.9667 1248.67 77.9C1248.67 78.6467 1248.62 79.5333 1248.53 80.56C1248.53 81.5867 1248.48 82.52 1248.39 83.36H1186.51V71.32H1238.17L1230.61 74.96C1230.7 70.8533 1229.86 67.26 1228.09 64.18C1226.41 61.0067 1224.03 58.5333 1220.95 56.76C1217.87 54.9867 1214.32 54.1 1210.31 54.1C1206.29 54.1 1202.75 54.9867 1199.67 56.76C1196.59 58.5333 1194.16 61.0067 1192.39 64.18C1190.71 67.3533 1189.87 71.0867 1189.87 75.38V78.32C1189.87 82.7067 1190.85 86.5333 1192.81 89.8C1194.77 93.0667 1197.52 95.6333 1201.07 97.5C1204.61 99.2733 1208.77 100.16 1213.53 100.16C1217.63 100.16 1221.27 99.5533 1224.45 98.34C1227.71 97.0333 1230.65 95.0267 1233.27 92.32L1243.63 103.8C1240.17 107.813 1235.88 110.847 1230.75 112.9C1225.61 114.953 1219.69 115.98 1212.97 115.98Z" fill="url(#paint0_linear_42_257)"/>
<path d="M339.98 200V167.55H327.22V161.5H359.89V167.55H347.13V200H339.98ZM381.206 177.505H400.346V183.39H381.206V177.505ZM381.756 194.005H403.481V200H374.606V161.5H402.711V167.495H381.756V194.005ZM432.737 200.55C429.73 200.55 426.852 200.128 424.102 199.285C421.352 198.405 419.17 197.287 417.557 195.93L420.032 190.375C421.572 191.585 423.478 192.593 425.752 193.4C428.025 194.207 430.353 194.61 432.737 194.61C434.753 194.61 436.385 194.39 437.632 193.95C438.878 193.51 439.795 192.923 440.382 192.19C440.968 191.42 441.262 190.558 441.262 189.605C441.262 188.432 440.84 187.497 439.997 186.8C439.153 186.067 438.053 185.498 436.697 185.095C435.377 184.655 433.892 184.252 432.242 183.885C430.628 183.518 428.997 183.097 427.347 182.62C425.733 182.107 424.248 181.465 422.892 180.695C421.572 179.888 420.49 178.825 419.647 177.505C418.803 176.185 418.382 174.498 418.382 172.445C418.382 170.355 418.932 168.448 420.032 166.725C421.168 164.965 422.873 163.572 425.147 162.545C427.457 161.482 430.372 160.95 433.892 160.95C436.202 160.95 438.493 161.243 440.767 161.83C443.04 162.417 445.02 163.26 446.707 164.36L444.452 169.915C442.728 168.888 440.95 168.137 439.117 167.66C437.283 167.147 435.523 166.89 433.837 166.89C431.857 166.89 430.243 167.128 428.997 167.605C427.787 168.082 426.888 168.705 426.302 169.475C425.752 170.245 425.477 171.125 425.477 172.115C425.477 173.288 425.88 174.242 426.687 174.975C427.53 175.672 428.612 176.222 429.932 176.625C431.288 177.028 432.792 177.432 434.442 177.835C436.092 178.202 437.723 178.623 439.337 179.1C440.987 179.577 442.472 180.2 443.792 180.97C445.148 181.74 446.23 182.785 447.037 184.105C447.88 185.425 448.302 187.093 448.302 189.11C448.302 191.163 447.733 193.07 446.597 194.83C445.497 196.553 443.792 197.947 441.482 199.01C439.172 200.037 436.257 200.55 432.737 200.55ZM472.014 200V167.55H459.254V161.5H491.924V167.55H479.164V200H472.014ZM531.191 200V161.5H538.341V200H531.191ZM565.914 200V167.55H553.154V161.5H585.824V167.55H573.064V200H565.914ZM600.307 200.385C599.061 200.385 597.997 199.963 597.117 199.12C596.237 198.24 595.797 197.14 595.797 195.82C595.797 194.427 596.237 193.327 597.117 192.52C597.997 191.677 599.061 191.255 600.307 191.255C601.554 191.255 602.617 191.677 603.497 192.52C604.377 193.327 604.817 194.427 604.817 195.82C604.817 197.14 604.377 198.24 603.497 199.12C602.617 199.963 601.554 200.385 600.307 200.385ZM652.64 179.21H671.835V185.26H652.64V179.21ZM653.245 200H646.095V161.5H674.2V167.495H653.245V200ZM697.065 177.505H716.205V183.39H697.065V177.505ZM697.615 194.005H719.34V200H690.465V161.5H718.57V167.495H697.615V194.005ZM743.261 177.505H762.401V183.39H743.261V177.505ZM743.811 194.005H765.536V200H736.661V161.5H764.766V167.495H743.811V194.005ZM782.856 200V161.5H790.006V193.95H810.136V200H782.856ZM849.681 200V161.5H856.831V200H849.681ZM884.405 200V167.55H871.645V161.5H904.315V167.55H891.555V200H884.405ZM918.798 200.385C917.552 200.385 916.488 199.963 915.608 199.12C914.728 198.24 914.288 197.14 914.288 195.82C914.288 194.427 914.728 193.327 915.608 192.52C916.488 191.677 917.552 191.255 918.798 191.255C920.045 191.255 921.108 191.677 921.988 192.52C922.868 193.327 923.308 194.427 923.308 195.82C923.308 197.14 922.868 198.24 921.988 199.12C921.108 199.963 920.045 200.385 918.798 200.385ZM964.586 200V161.5H971.736V193.95H991.866V200H964.586ZM1006.86 200V161.5H1014.01V200H1006.86ZM1044.89 200L1028.06 161.5H1035.82L1050.83 196.315H1046.38L1061.56 161.5H1068.71L1051.93 200H1044.89ZM1088.72 177.505H1107.86V183.39H1088.72V177.505ZM1089.27 194.005H1110.99V200H1082.12V161.5H1110.22V167.495H1089.27V194.005ZM1152.86 200V161.5H1160.01V200H1152.86ZM1187.59 200V167.55H1174.83V161.5H1207.5V167.55H1194.74V200H1187.59ZM1221.98 200.385C1220.73 200.385 1219.67 199.963 1218.79 199.12C1217.91 198.24 1217.47 197.14 1217.47 195.82C1217.47 194.427 1217.91 193.327 1218.79 192.52C1219.67 191.677 1220.73 191.255 1221.98 191.255C1223.23 191.255 1224.29 191.677 1225.17 192.52C1226.05 193.327 1226.49 194.427 1226.49 195.82C1226.49 197.14 1226.05 198.24 1225.17 199.12C1224.29 199.963 1223.23 200.385 1221.98 200.385Z" fill="url(#paint1_linear_42_257)"/>
<path d="M123.197 9C123.282 9.07651 160.991 42.7251 170.544 86.417C204.408 59.6523 246.407 58.0401 246.59 58.0332C246.598 58.2116 249.405 119.609 214.699 156.368L213.711 157.405C171.83 200.917 126.717 194.51 124.084 195.4L124.038 195.361C117.465 195.512 69.7567 195.744 32.22 156.279L31.3236 155.327C-6.82857 114.387 0.573981 59.3596 0.586255 59.2686C0.586255 59.2686 42.6213 61.6436 74.9993 86.0537C84.8121 41.2329 123.083 9.0955 123.197 9ZM122.961 27.9932C119.139 32.0378 114.505 37.3534 109.829 43.7021C99.3923 57.8745 89.437 76.2553 86.8656 96.5684L86.8665 96.5693C86.4749 99.1446 86.1811 101.789 86.0003 104.5C83.5022 141.97 122.937 181.936 123 182C123 182 162.5 141 159.5 104.5C159.5 87.7206 153.673 72.9376 146.676 61.2324C143.432 55.1646 139.804 49.471 136.096 44.2803C131.419 37.7322 126.777 32.2047 122.961 27.9932ZM232.653 73.4561C228.459 74.2663 223.581 75.407 218.307 77.0039C203.743 81.4134 186.799 89.1096 172.649 102.409C174.231 140.03 153.06 166.531 138.205 181.354C142.022 180.993 146.496 180.339 151.446 179.159C166.288 175.622 185.839 167.27 204.883 147.101L205.572 146.362C219.911 130.751 227.032 109.517 230.397 90.9844C231.579 84.4749 232.262 78.482 232.653 73.4561ZM13.5648 74.6631C13.7057 79.0175 14.1025 84.1897 14.9788 89.877C17.6244 107.045 24.5167 128.221 41.1995 146.123C63.383 169.927 89.8185 177.93 106.825 180.587C91.3355 164.952 71.6554 137.715 72.7806 103.493L72.8304 102.251C72.838 102.09 72.8473 101.929 72.8558 101.768C60.0815 90.2299 44.2441 83.0755 30.014 78.7236C23.9258 76.8617 18.2917 75.5634 13.5648 74.6631ZM13.9652 61.0684C13.9652 61.0684 13.9677 61.0622 13.9681 61.0596C13.9688 61.0546 13.9686 61.0493 13.9691 61.0459L13.9652 61.0684Z" fill="url(#paint2_linear_42_257)"/>
<defs>
<linearGradient id="paint0_linear_42_257" x1="290" y1="65" x2="1254" y2="65" gradientUnits="userSpaceOnUse">
<stop stop-color="#0B8F7B"/>
<stop offset="1" stop-color="#3FBCAE"/>
</linearGradient>
<linearGradient id="paint1_linear_42_257" x1="327" y1="180" x2="1244" y2="180" gradientUnits="userSpaceOnUse">
<stop stop-color="#0C907C"/>
<stop offset="1" stop-color="#3EBBAD"/>
</linearGradient>
<linearGradient id="paint2_linear_42_257" x1="0" y1="102.2" x2="246.647" y2="102.2" gradientUnits="userSpaceOnUse">
<stop stop-color="#0B8F7B"/>
<stop offset="1" stop-color="#3FBCAE"/>
</linearGradient>
</defs>
</svg>
