<svg xmlns="http://www.w3.org/2000/svg" viewBox="0 0 850.39 283.46"><defs><style>.cls-1{fill:#fff;}.cls-2{fill:#9ccceb;}</style></defs><g id="Layer_2" data-name="Layer 2"><g id="Ebene_1" data-name="Ebene 1"><path class="cls-1" d="M25.5,102.6a22.1,22.1,0,0,1,9.33,1.85,19.47,19.47,0,0,1,6.72,5,21,21,0,0,1,4.06,7.58,32.45,32.45,0,0,1,1.33,9.42,43.55,43.55,0,0,1-1.16,10H10.66a29.85,29.85,0,0,0,1.16,7.76,16.61,16.61,0,0,0,3.19,6,13.91,13.91,0,0,0,5.56,3.88,22.6,22.6,0,0,0,8.29,1.35,35.41,35.41,0,0,0,8.52-1A46,46,0,0,0,44.74,152l1.39,8.25a35.88,35.88,0,0,1-8.64,2.89,48.45,48.45,0,0,1-10.14,1,28.47,28.47,0,0,1-12.11-2.4,23.79,23.79,0,0,1-8.52-6.53,28,28,0,0,1-5-9.67,43,43,0,0,1,.06-24,30.64,30.64,0,0,1,5-9.92A23.53,23.53,0,0,1,14.84,105,23.16,23.16,0,0,1,25.5,102.6Zm-.35,8.26a12.45,12.45,0,0,0-5.91,1.35,13.92,13.92,0,0,0-4.4,3.7,17.58,17.58,0,0,0-2.9,5.48A26.45,26.45,0,0,0,10.66,128h26.2a26.72,26.72,0,0,0-.12-6.59,15,15,0,0,0-1.85-5.48,10.16,10.16,0,0,0-3.83-3.7A12,12,0,0,0,25.15,110.86Z"/><path class="cls-1" d="M60.15,163V103.84h10v8.62a23.15,23.15,0,0,1,7.53-7.27,19.83,19.83,0,0,1,10.2-2.59,16.5,16.5,0,0,1,8.93,2.34,19.16,19.16,0,0,1,6.14,6.35,29.18,29.18,0,0,1,3.53,9.3,54.58,54.58,0,0,1,1.1,11.21V163H97.12v-30.8a46.26,46.26,0,0,0-.69-8.32,21.51,21.51,0,0,0-2.2-6.46,11.63,11.63,0,0,0-3.94-4.25,10.85,10.85,0,0,0-5.92-1.54,13.5,13.5,0,0,0-8.17,2.58,26.09,26.09,0,0,0-5.62,5.43V163Z"/><path class="cls-1" d="M145.8,102.6a22.1,22.1,0,0,1,9.33,1.85,19.28,19.28,0,0,1,6.72,5,21,21,0,0,1,4.06,7.58,32.11,32.11,0,0,1,1.33,9.42,43.55,43.55,0,0,1-1.16,10H131a29.85,29.85,0,0,0,1.16,7.76,16.61,16.61,0,0,0,3.19,6,13.91,13.91,0,0,0,5.56,3.88,22.64,22.64,0,0,0,8.29,1.35,35.35,35.35,0,0,0,8.52-1A45.68,45.68,0,0,0,165,152l1.39,8.25a36,36,0,0,1-8.63,2.89,48.62,48.62,0,0,1-10.15,1,28.47,28.47,0,0,1-12.11-2.4,24,24,0,0,1-8.52-6.53,28,28,0,0,1-5-9.67,43,43,0,0,1,.06-24,30.64,30.64,0,0,1,5-9.92,23.63,23.63,0,0,1,8.06-6.65A23.16,23.16,0,0,1,145.8,102.6Zm-.35,8.26a12.45,12.45,0,0,0-5.91,1.35,13.92,13.92,0,0,0-4.4,3.7,17.79,17.79,0,0,0-2.9,5.48A26.91,26.91,0,0,0,131,128h26.2a26.72,26.72,0,0,0-.12-6.59,14.85,14.85,0,0,0-1.85-5.48,10.09,10.09,0,0,0-3.83-3.7A12,12,0,0,0,145.45,110.86Z"/><path class="cls-1" d="M211.75,113h-2.67a21.49,21.49,0,0,0-10.6,2.47,20,20,0,0,0-7.6,8V163H180.45V103.84h10v11.33a21.22,21.22,0,0,1,6.43-9q4-3.08,10.61-3.08a13,13,0,0,1,4.29.61Z"/><path class="cls-1" d="M241.19,143.13a24.91,24.91,0,0,1-4.41-.37,8.53,8.53,0,0,0-1.74,4.93,3.76,3.76,0,0,0,1.45,3.27,9.63,9.63,0,0,0,4.81,1.29l11.48,1a41.64,41.64,0,0,1,7.3,1.29,17.43,17.43,0,0,1,5.73,2.65,11.73,11.73,0,0,1,3.71,4.49,15.08,15.08,0,0,1,1.33,6.59,15.49,15.49,0,0,1-2.6,8.75,22.92,22.92,0,0,1-7,6.71,36.2,36.2,0,0,1-10,4.32,44.18,44.18,0,0,1-11.65,1.54,45.9,45.9,0,0,1-9.5-.93,25.83,25.83,0,0,1-7.71-2.83,15.35,15.35,0,0,1-5.22-4.81,12.13,12.13,0,0,1-1.91-6.83,11.16,11.16,0,0,1,1.45-5.79,15.07,15.07,0,0,1,3.71-4.25,23,23,0,0,1,5-3,39.1,39.1,0,0,1,5.45-2,11.56,11.56,0,0,1-3.89-3.33,8.6,8.6,0,0,1-1.56-5.29,8.27,8.27,0,0,1,1.85-5.67,16.21,16.21,0,0,1,4.29-3.45,20.14,20.14,0,0,1-9.15-7,20.19,20.19,0,0,1-1.74-19.53,20.9,20.9,0,0,1,11.7-10.78,24.46,24.46,0,0,1,8.7-1.54,25.61,25.61,0,0,1,4,.31,24.7,24.7,0,0,1,3.77.93H269.7v8.25H260a21.21,21.21,0,0,1,2.49,5.17,18.86,18.86,0,0,1,.87,5.79,19.39,19.39,0,0,1-1.68,8.13,18.57,18.57,0,0,1-4.69,6.35,22.06,22.06,0,0,1-7.07,4.13A25.37,25.37,0,0,1,241.19,143.13Zm-4.06,17.74q-2,1-4.06,2.16a24.49,24.49,0,0,0-3.77,2.58,13.61,13.61,0,0,0-2.78,3.21,7.75,7.75,0,0,0-1.1,4.13,7.1,7.1,0,0,0,3.94,6.77q3.94,2.1,10.78,2.1a37.44,37.44,0,0,0,7.3-.74,25.3,25.3,0,0,0,6.67-2.28,15.45,15.45,0,0,0,4.87-3.88,8.35,8.35,0,0,0,1.91-5.42,5.64,5.64,0,0,0-1.05-3.57,7.64,7.64,0,0,0-2.78-2.22,14,14,0,0,0-3.94-1.24c-1.47-.24-3-.44-4.63-.61Zm4.06-25.62a13.37,13.37,0,0,0,9.15-3.26q3.71-3.27,3.71-9.06t-3.65-9.05a13.29,13.29,0,0,0-9.21-3.27,13.65,13.65,0,0,0-9.22,3.14q-3.65,3.15-3.65,9.18c0,4,1.23,7.08,3.71,9.18A13.69,13.69,0,0,0,241.19,135.25Z"/><path class="cls-1" d="M279.78,86.34a7.35,7.35,0,0,1,1.79-4.92,6.56,6.56,0,0,1,9.62,0,7.64,7.64,0,0,1,0,9.85,6.56,6.56,0,0,1-9.62,0A7.37,7.37,0,0,1,279.78,86.34ZM281.17,163V103.84H291.6V163Z"/><path class="cls-1" d="M330.42,102.6a22,22,0,0,1,9.33,1.85,19.41,19.41,0,0,1,6.73,5,21.18,21.18,0,0,1,4,7.58,32.11,32.11,0,0,1,1.34,9.42,43.55,43.55,0,0,1-1.16,10H315.59a29.43,29.43,0,0,0,1.16,7.76,16.31,16.31,0,0,0,3.19,6,13.84,13.84,0,0,0,5.56,3.88,22.6,22.6,0,0,0,8.29,1.35,35.27,35.27,0,0,0,8.51-1,45.68,45.68,0,0,0,7.36-2.46l1.39,8.25a36,36,0,0,1-8.63,2.89,48.45,48.45,0,0,1-10.14,1,28.41,28.41,0,0,1-12.11-2.4,23.79,23.79,0,0,1-8.52-6.53,28,28,0,0,1-5-9.67,43,43,0,0,1,.06-24,30.44,30.44,0,0,1,5-9.92,23.5,23.5,0,0,1,8.05-6.65A23.19,23.19,0,0,1,330.42,102.6Zm-.34,8.26a12.42,12.42,0,0,0-5.91,1.35,14.07,14.07,0,0,0-4.41,3.7,17.79,17.79,0,0,0-2.9,5.48,26.44,26.44,0,0,0-1.27,6.59h26.19a26.25,26.25,0,0,0-.11-6.59,14.86,14.86,0,0,0-1.86-5.48,10.13,10.13,0,0,0-3.82-3.7A12,12,0,0,0,330.08,110.86Z"/><path class="cls-2" d="M637.43,222.71a44.3,44.3,0,0,1-6.07,5.08,38.32,38.32,0,0,1-9.64,4.87,32.71,32.71,0,0,1-12.13,1.47c-8.65-.47-18.17-4.52-27.75-10.89-1.2-.75-2.38-1.63-3.59-2.49s-2.45-1.63-3.62-2.61c-2.32-1.83-4.67-3.67-7-5.64,10.74-13.86,18.58-27.92,23.28-41.85a165.35,165.35,0,0,0,8.78-45.46,119.62,119.62,0,0,0-35.32-90A110.23,110.23,0,0,0,543.94,19.4a131.86,131.86,0,0,0-26.24-12A142,142,0,0,0,484.77.76a131.2,131.2,0,0,0-33.83.74,184.61,184.61,0,0,0-33.25,8.2,189.9,189.9,0,0,0-30.77,13.83,172.91,172.91,0,0,0-26.4,18.09c-16.75,13.85-29.59,28.51-38.15,43.57-1.05,1.85-2.07,3.69-3,5.53h40c.55-1.63,1.05-3.25,1.66-4.9,4.95-13.31,13.79-26.47,26.24-39.08A125.4,125.4,0,0,1,405,32.49a84.28,84.28,0,0,1,22.81-10.73,82,82,0,0,1,30-3.81A110,110,0,0,1,473.26,20a69.41,69.41,0,0,1,9.62,2.75,86.54,86.54,0,0,1,20.36,10.64A103.73,103.73,0,0,1,519.1,47.34a93.61,93.61,0,0,1,11.69,15.73A151.55,151.55,0,0,1,539.36,80a159.7,159.7,0,0,1,10.35,34.75,135.51,135.51,0,0,1,1.19,37.14,197.8,197.8,0,0,1-2.75,20.52A117.15,117.15,0,0,1,543,190.88c-2.27-1.74-4.56-3.41-6.94-4.94a79.77,79.77,0,0,0-9.19-5.23c-1.6-.74-3.1-1.57-4.73-2.2s-3.25-1.23-4.85-1.83a58.46,58.46,0,0,0-20.07-3.11,47.29,47.29,0,0,0-19.19,4.6,52.14,52.14,0,0,0-14.77,10.77,57.91,57.91,0,0,0-8.69,11.75,54.84,54.84,0,0,0-3.9,8.52,26.66,26.66,0,0,0-1,3.13s.69-.85,2-2.29a61.19,61.19,0,0,1,5.93-5.51,49.6,49.6,0,0,1,9.49-6.19,38,38,0,0,1,12.2-3.62c8.77-1.06,18.46,1.6,28.23,7,2.41,1.49,4.9,2.85,7.33,4.55a43.63,43.63,0,0,1,3.65,2.6c1.21.94,2.48,1.7,3.68,2.71,2.41,1.9,4.79,3.88,7.19,5.95a115.49,115.49,0,0,1-15.72,18.57,133.14,133.14,0,0,1-21.16,16,81.76,81.76,0,0,1-27.68,10.83c-11.62,2.29-22.31,2.64-31.76,1a90.85,90.85,0,0,1-25-7.7A89.24,89.24,0,0,1,387.87,243a88.13,88.13,0,0,1-14.47-16.25,98.49,98.49,0,0,1-9.85-18.26,142.57,142.57,0,0,1-6.46-19.59c-1.11-4-2-8-2.86-12.13H300.79a120.81,120.81,0,0,0,6.88,27.67,139.75,139.75,0,0,0,14.76,26.14,108.49,108.49,0,0,0,22.86,23.25,138.41,138.41,0,0,0,20.62,13.36,134.88,134.88,0,0,0,26.6,10.74c2.9.85,5.92,1.6,9,2.26a154.9,154.9,0,0,0,22.7,3,139.87,139.87,0,0,0,36.75-2.9,174.33,174.33,0,0,0,33.25-10.56,187.64,187.64,0,0,0,28.56-15.32A173.61,173.61,0,0,0,546,236.24c.78-.73,1.51-1.47,2.27-2.2,1.57,1.24,3.15,2.43,4.73,3.5s2.86,2,4.33,3l4.48,2.66c1.46.92,3.06,1.63,4.55,2.44a40.5,40.5,0,0,0,4.64,2.14,65.63,65.63,0,0,0,19.12,5.16A48.42,48.42,0,0,0,609,251.23a45.31,45.31,0,0,0,15.58-8.35A49.27,49.27,0,0,0,634.17,232a46.56,46.56,0,0,0,4.29-8.38,22.75,22.75,0,0,0,1-3.12S638.79,221.35,637.43,222.71Z"/><path class="cls-1" d="M670.64,146v59.13h-10v-8.62a25.55,25.55,0,0,1-7.48,7.09,19.07,19.07,0,0,1-10.25,2.76,16.09,16.09,0,0,1-8.87-2.34,18.29,18.29,0,0,1-6-6.34,30.27,30.27,0,0,1-3.36-9.3,58.39,58.39,0,0,1-1-11.21V146h10.43v30.8a54.18,54.18,0,0,0,.58,8.31,21,21,0,0,0,2,6.47,10.14,10.14,0,0,0,9.73,5.79,13.21,13.21,0,0,0,8.12-2.59,29.3,29.3,0,0,0,5.68-5.42V146Z"/><path class="cls-1" d="M709.46,144.79a21.91,21.91,0,0,1,9.33,1.85,19.16,19.16,0,0,1,6.72,5.05,20.88,20.88,0,0,1,4.06,7.58,32.06,32.06,0,0,1,1.34,9.42,43.61,43.61,0,0,1-1.16,10H694.63a29.09,29.09,0,0,0,1.16,7.76,16.31,16.31,0,0,0,3.18,6,13.75,13.75,0,0,0,5.57,3.88,22.36,22.36,0,0,0,8.28,1.36,35.35,35.35,0,0,0,8.52-1,45.68,45.68,0,0,0,7.36-2.46l1.39,8.25a36,36,0,0,1-8.63,2.89,47.86,47.86,0,0,1-10.14,1,28.41,28.41,0,0,1-12.11-2.4,23.68,23.68,0,0,1-8.52-6.53,27.59,27.59,0,0,1-5-9.67,42.79,42.79,0,0,1,.06-24,30.2,30.2,0,0,1,5-9.91,23,23,0,0,1,18.71-9.06Zm-.35,8.26a12.45,12.45,0,0,0-5.91,1.35,13.66,13.66,0,0,0-4.4,3.7,17.68,17.68,0,0,0-2.9,5.48,26.44,26.44,0,0,0-1.27,6.59h26.19a27.23,27.23,0,0,0-.11-6.59,14.79,14.79,0,0,0-1.86-5.48,10,10,0,0,0-3.82-3.7A12.08,12.08,0,0,0,709.11,153.05Z"/><path class="cls-1" d="M754,189.77a9.49,9.49,0,0,0,1.33,5.47q1.34,1.9,4.58,1.91a19.13,19.13,0,0,0,5.21-.75l.47,8.36a24.78,24.78,0,0,1-8.46,1.38q-7.3,0-10.44-4.56a19.39,19.39,0,0,1-3.12-11.21V118.18H754Z"/><path class="cls-1" d="M786,189.77a9.48,9.48,0,0,0,1.34,5.47q1.34,1.9,4.57,1.91a19.25,19.25,0,0,0,5.22-.75l.46,8.36a24.78,24.78,0,0,1-8.46,1.38q-7.3,0-10.43-4.56a19.32,19.32,0,0,1-3.13-11.21V118.18H786Z"/><path class="cls-1" d="M829,144.79a21.91,21.91,0,0,1,9.33,1.85,19.16,19.16,0,0,1,6.72,5.05,20.88,20.88,0,0,1,4.06,7.58,32.06,32.06,0,0,1,1.33,9.42,43.6,43.6,0,0,1-1.15,10H814.12a29.49,29.49,0,0,0,1.16,7.76,16.31,16.31,0,0,0,3.18,6,13.68,13.68,0,0,0,5.57,3.88,22.36,22.36,0,0,0,8.28,1.36,35.29,35.29,0,0,0,8.52-1,45.68,45.68,0,0,0,7.36-2.46l1.39,8.25a36,36,0,0,1-8.63,2.89,47.93,47.93,0,0,1-10.14,1A28.41,28.41,0,0,1,818.7,204a23.68,23.68,0,0,1-8.52-6.53,28,28,0,0,1-5-9.67,43.28,43.28,0,0,1,.06-24,30.58,30.58,0,0,1,5-9.91A23,23,0,0,1,829,144.79Zm-.35,8.26a12.45,12.45,0,0,0-5.91,1.35,13.66,13.66,0,0,0-4.4,3.7,17.68,17.68,0,0,0-2.9,5.48,26.44,26.44,0,0,0-1.27,6.59h26.19a26.72,26.72,0,0,0-.12-6.59,14.61,14.61,0,0,0-1.85-5.48,9.94,9.94,0,0,0-3.83-3.7A12,12,0,0,0,828.6,153.05Z"/></g></g></svg>